# xmcd CD database file
#
# Track frame offsets:
#	150
#	11937
#	24275
#	37055
#	50835
#	62680
#	76497
#	89677
#	102877
#	115990
#	127977
#	140242
#	152832
#	166272
#	179700
#	193495
#	207197
#	222005
#	236170
#	249732
#	262287
#	274750
#	285710
#	297410
#	311657
#	324285
#
# Disc length: 4498 seconds
#
# Revision: 0
# Processed by: cddbd v1.5.1PL0 Copyright (c) Steve Scherf et al.
# Submitted via: CDex 1.51
#
DISCID=a011901a
DTITLE=Ella Fitzgerald - Papermoons 1930's/1940's
DYEAR=2002
DGENRE=Jazz
TTITLE0=Sing Me A Swing Song (And Let Me Dance
TTITLE1=My Last Affair
TTITLE2=Organ Grinder's Swing
TTITLE3=Darktown Strutter's Ball
TTITLE4=Cryin' Mood
TTITLE5=Everyone's Wrong But Me
TTITLE6=It's My Turn Now
TTITLE7=It's Wonderful
TTITLE8=I was Doing All Right
TTITLE9=A Tisket A Tasket
TTITLE10=Everybody Step
TTITLE11=Strictly From Dixie
TTITLE12=It's Foxy
TTITLE13=T'Aint What You Do
TTITLE14=My Heart Belongs To Daddy
TTITLE15=Coochie Coochie Coo
TTITLE16=My Last Goodbye
TTITLE17=You're Going To Lose Your Gal
TTITLE18=Moon Ray
TTITLE19=Sugar Blues
TTITLE20=Cabin In The Sky
TTITLE21=The Muffin Man
TTITLE22=I Can't Believe That You're In Love With Me
TTITLE23=I Must Have That Man
TTITLE24=Make Love To Me
TTITLE25=No Nothing
EXTD=YEAR: 2002
EXTT0=
EXTT1=
EXTT2=
EXTT3=
EXTT4=
EXTT5=
EXTT6=
EXTT7=
EXTT8=
EXTT9=
EXTT10=
EXTT11=
EXTT12=
EXTT13=
EXTT14=
EXTT15=
EXTT16=
EXTT17=
EXTT18=
EXTT19=
EXTT20=
EXTT21=
EXTT22=
EXTT23=
EXTT24=
EXTT25=
PLAYORDER=
